{
  "source": "C:\\Users\\Peter\\Desktop\\stuff\\MIUN\\quantitative_research\\video_compression\\videos\\BVI-HD\\BVI-HD_CDVL_videos\\ORIG\\Grass_1920x1080_60fps.mp4",
  "output": "C:\\Users\\Peter\\Desktop\\stuff\\MIUN\\quantitative_research\\video_compression\\compressed_videos\\BVI-HD\\h264\\1\\Grass_1920x1080_60fps_h264.mp4",
  "codec": "h264",
  "ok": "Input #0, mov,mp4,m4a,3gp,3g2,mj2, from 'C:\\Users\\Peter\\Desktop\\stuff\\MIUN\\quantitative_research\\video_compression\\videos\\BVI-HD\\BVI-HD_CDVL_videos\\ORIG\\Grass_1920x1080_60fps.mp4':\n  Metadata:\n    major_brand     : isom\n    minor_version   : 512\n    compatible_brands: isomiso2avc1mp41\n    encoder         : Lavf54.28.101\n  Duration: 00:00:05.00, start: 0.000000, bitrate: 655968 kb/s\n  Stream #0:0[0x1](und): Video: h264 (High 4:4:4 Predictive) (avc1 / 0x31637661), yuv420p(progressive), 1920x1080, 655963 kb/s, 60 fps, 60 tbr, 60 tbn (default)\n    Metadata:\n      handler_name    : VideoHandler\n      vendor_id       : [0][0][0][0]\n[out#0/mp4 @ 000001a2e7187d40] Codec AVOption b:a (set bitrate (in bits/s)) has not been used for any stream. The most likely reason is either wrong type (e.g. a video option with no video streams) or that it is a private option of some decoder which was not actually used for any stream.\nStream mapping:\n  Stream #0:0 -> #0:0 (h264 (native) -> h264 (libx264))\nPress [q] to stop, [?] for help\n[libx264 @ 000001a2e7d10ac0] using cpu capabilities: MMX2 SSE2Fast SSSE3 SSE4.2 AVX FMA3 BMI2 AVX2\n[libx264 @ 000001a2e7d10ac0] profile High, level 5.0, 4:2:0, 8-bit\n[libx264 @ 000001a2e7d10ac0] 264 - core 165 r3222 b35605a - H.264/MPEG-4 AVC codec - Copyleft 2003-2025 - http://www.videolan.org/x264.html - options: cabac=1 ref=5 deblock=1:0:0 analyse=0x3:0x113 me=hex subme=8 psy=1 psy_rd=1.00:0.00 mixed_ref=1 me_range=16 chroma_me=1 trellis=2 8x8dct=1 cqm=0 deadzone=21,11 fast_pskip=1 chroma_qp_offset=-2 threads=18 lookahead_threads=3 sliced_threads=0 nr=0 decimate=1 interlaced=0 bluray_compat=0 constrained_intra=0 bframes=3 b_pyramid=2 b_adapt=1 b_bias=0 direct=3 weightb=1 open_gop=0 weightp=2 keyint=250 keyint_min=25 scenecut=40 intra_refresh=0 rc_lookahead=50 rc=cbr mbtree=1 bitrate=1000 ratetol=1.0 qcomp=0.60 qpmin=0 qpmax=69 qpstep=4 vbv_maxrate=1000 vbv_bufsize=1000 nal_hrd=none filler=0 ip_ratio=1.40 aq=1:1.00\nOutput #0, mp4, to 'C:\\Users\\Peter\\Desktop\\stuff\\MIUN\\quantitative_research\\video_compression\\compressed_videos\\BVI-HD\\h264\\1\\Grass_1920x1080_60fps_h264.mp4':\n  Metadata:\n    major_brand     : isom\n    minor_version   : 512\n    compatible_brands: isomiso2avc1mp41\n    encoder         : Lavf62.3.100\n  Stream #0:0(und): Video: h264 (avc1 / 0x31637661), yuv420p(tv, progressive), 1920x1080, q=2-31, 1000 kb/s, 60 fps, 15360 tbn (default)\n    Metadata:\n      encoder         : Lavc62.11.100 libx264\n      handler_name    : VideoHandler\n      vendor_id       : [0][0][0][0]\n    Side data:\n      cpb: bitrate max/min/avg: 1000000/0/1000000 buffer size: 1000000 vbv_delay: N/A\nframe=    0 fps=0.0 q=0.0 size=       0KiB time=N/A bitrate=N/A speed=N/A elapsed=0:00:00.52    \nframe=    0 fps=0.0 q=0.0 size=       0KiB time=N/A bitrate=N/A speed=N/A elapsed=0:00:01.13    \nframe=    0 fps=0.0 q=0.0 size=       0KiB time=N/A bitrate=N/A speed=N/A elapsed=0:00:01.70    \nframe=   12 fps=5.3 q=53.0 size=       0KiB time=00:00:00.10 bitrate=   3.8kbits/s speed=0.0441x elapsed=0:00:02.26    \nframe=   43 fps= 15 q=50.0 size=       0KiB time=00:00:00.63 bitrate=   0.6kbits/s speed=0.219x elapsed=0:00:02.89    \nframe=   63 fps= 18 q=49.0 size=       0KiB time=00:00:01.01 bitrate=   0.4kbits/s speed=0.288x elapsed=0:00:03.53    \nframe=   82 fps= 20 q=49.0 size=       0KiB time=00:00:01.33 bitrate=   0.3kbits/s speed=0.322x elapsed=0:00:04.14    \nframe=  100 fps= 21 q=48.0 size=       0KiB time=00:00:01.63 bitrate=   0.2kbits/s speed=0.346x elapsed=0:00:04.72    \nframe=  116 fps= 22 q=48.0 size=       0KiB time=00:00:01.88 bitrate=   0.2kbits/s speed=0.358x elapsed=0:00:05.26    \nframe=  140 fps= 24 q=48.0 size=       0KiB time=00:00:02.21 bitrate=   0.2kbits/s speed=0.381x elapsed=0:00:05.81    \nframe=  162 fps= 25 q=47.0 size=       0KiB time=00:00:02.63 bitrate=   0.1kbits/s speed=0.413x elapsed=0:00:06.38    \nframe=  184 fps= 26 q=47.0 size=     256KiB time=00:00:02.98 bitrate= 703.1kbits/s speed=0.43x elapsed=0:00:06.94    \nframe=  204 fps= 27 q=49.0 size=     256KiB time=00:00:03.35 bitrate= 626.1kbits/s speed=0.446x elapsed=0:00:07.51    \nframe=  222 fps= 27 q=49.0 size=     256KiB time=00:00:03.66 bitrate= 572.1kbits/s speed=0.453x elapsed=0:00:08.09    \nframe=  250 fps= 29 q=50.0 size=     256KiB time=00:00:04.13 bitrate= 507.5kbits/s speed=0.477x elapsed=0:00:08.67    \nframe=  293 fps= 32 q=-1.0 size=     256KiB time=00:00:04.83 bitrate= 434.0kbits/s speed=0.523x elapsed=0:00:09.23    \n[mp4 @ 000001a2e70f9ac0] Starting second pass: moving the moov atom to the beginning of the file\n[out#0/mp4 @ 000001a2e7187d40] video:450KiB audio:0KiB subtitle:0KiB other streams:0KiB global headers:0KiB muxing overhead: 0.967414%\nframe=  300 fps= 32 q=-1.0 Lsize=     454KiB time=00:00:04.96 bitrate= 748.9kbits/s speed=0.535x elapsed=0:00:09.27    \n[libx264 @ 000001a2e7d10ac0] frame I:2     Avg QP:46.93  size: 46601\n[libx264 @ 000001a2e7d10ac0] frame P:76    Avg QP:46.16  size:  3472\n[libx264 @ 000001a2e7d10ac0] frame B:222   Avg QP:50.52  size:   462\n[libx264 @ 000001a2e7d10ac0] consecutive B-frames:  1.3%  0.0%  0.0% 98.7%\n[libx264 @ 000001a2e7d10ac0] mb I  I16..4: 29.1% 65.3%  5.6%\n[libx264 @ 000001a2e7d10ac0] mb P  I16..4:  0.0%  0.1%  0.0%  P16..4: 10.0%  0.5%  9.7%  0.0%  0.0%    skip:79.6%\n[libx264 @ 000001a2e7d10ac0] mb B  I16..4:  0.0%  0.0%  0.0%  B16..8:  8.3%  0.0%  0.0%  direct: 0.0%  skip:91.7%  L0: 5.3% L1:94.7% BI: 0.0%\n[libx264 @ 000001a2e7d10ac0] 8x8 transform intra:66.0% inter:90.7%\n[libx264 @ 000001a2e7d10ac0] direct mvs  spatial:95.5% temporal:4.5%\n[libx264 @ 000001a2e7d10ac0] coded y,uvDC,uvAC intra: 48.5% 78.6% 38.2% inter: 0.6% 1.3% 0.0%\n[libx264 @ 000001a2e7d10ac0] i16 v,h,dc,p: 22% 21% 10% 47%\n[libx264 @ 000001a2e7d10ac0] i8 v,h,dc,ddl,ddr,vr,hd,vl,hu:  3%  1%  6% 16% 22% 16% 16% 11%  9%\n[libx264 @ 000001a2e7d10ac0] i4 v,h,dc,ddl,ddr,vr,hd,vl,hu:  3%  1%  1% 18% 23% 16% 16%  9% 13%\n[libx264 @ 000001a2e7d10ac0] i8c dc,h,v,p: 62% 17% 13%  8%\n[libx264 @ 000001a2e7d10ac0] Weighted P-Frames: Y:0.0% UV:0.0%\n[libx264 @ 000001a2e7d10ac0] ref P L0: 91.7%  0.3%  3.8%  2.1%  2.0%\n[libx264 @ 000001a2e7d10ac0] ref B L0: 95.5%  3.5%  0.8%  0.3%\n[libx264 @ 000001a2e7d10ac0] ref B L1: 97.0%  3.0%\n[libx264 @ 000001a2e7d10ac0] kb/s:735.59\n",
  "seconds": 9.861273288726807,
  "probe_out": {}
}